<?xml version="1.0" encoding="utf-8"?>
<!-- Generator: Adobe Illustrator 16.0.0, SVG Export Plug-In . SVG Version: 6.00 Build 0)  -->
<svg version="1.2" baseProfile="tiny" id="Layer_1" xmlns="http://www.w3.org/2000/svg" xmlns:xlink="http://www.w3.org/1999/xlink"
	 x="0px" y="0px" width="960px" height="560px" viewBox="0 0 960 560" xml:space="preserve">
<g>
	<g>
		<path stroke="white" stroke-width="1" fill-rule="evenodd" fill="#2C2B2A" d="M408.24,261.36c8.407-4.982,16.82-9.957,25.221-14.949
			c13.754-8.174,27.504-16.353,41.239-24.559c0.739-0.441,1.297-0.446,2.069-0.112c13.169,5.698,26.352,11.364,39.531,17.037
			l0.061,0.047l0.076-0.013c0,0,0.041,0.021,0.041,0.02c0.427,0.375,0.951,0.544,1.474,0.736c2.316,0.851,4.332,2.018,5.167,4.585
			c0.393,1.208,0.34,2.447,0.436,3.661c0.164,2.089,0.418,4.204-0.202,6.291c-0.244,0.822-0.375,1.701,0.132,2.514
			c-0.475,0.842-0.016,1.685-0.003,2.527c-0.909,1.775-1.146,3.667-0.981,5.629c-1.42,0.398-2.864,0.727-4.251,1.219
			c-0.816,0.29-1.103-0.006-1.458-0.657c-3.337-6.123-7.9-11.123-13.815-14.84c-7.976-5.013-16.719-7.058-26.071-6.453
			c-12.811,0.829-23.656,5.906-32.414,15.333c-2.019,2.172-3.786,4.548-5.261,7.122c-0.434,0.756-0.844,1.024-1.764,0.925
			c-9.299-0.999-18.604-1.937-27.909-2.886c-0.437-0.044-0.878-0.04-1.317-0.058C408.24,263.44,408.24,262.4,408.24,261.36z"/>
		<path fill-rule="evenodd" fill="#2C2B2A" d="M466.8,186.24c0.866,0.445,1.838,0.25,2.751,0.454c1.211,0.27,2.524,0.4,3.509,1.116
			c1.274,0.927,0.105,2.261,0.183,3.413c0.062,0.907-0.153,1.83-0.173,2.747c-0.012,0.596-0.185,0.878-0.823,0.869
			c-0.58-0.008-1.048-0.039-1.016-0.8c0.015-0.357-0.095-0.727-0.046-1.076c0.259-1.828-0.845-2.709-2.294-3.338
			c-1.971-0.854-4.016-1.046-6.09-0.477c-2.756,0.757-4.292,3.378-3.615,6.143c0.337,1.375,1.192,2.309,2.562,2.768
			c2.209,0.739,4.515,0.998,6.793,1.388c3.968,0.68,6.049,2.421,6.706,5.668c1.131,5.596-2.309,10.876-8.081,12.274
			c-4.343,1.051-8.562,0.518-12.641-1.26c-0.504-0.22-0.896-0.455-0.763-1.147c0.386-2.007,0.516-4.042,0.511-6.083
			c-0.001-0.741,0.442-0.708,0.944-0.718c0.507-0.01,0.786,0.097,0.824,0.718c0.1,1.633-0.186,3.386,1.469,4.563
			c2.038,1.449,4.262,2.157,6.754,1.9c3.409-0.35,5.515-2.427,5.679-5.545c0.137-2.601-0.959-4.194-3.498-4.821
			c-1.973-0.488-3.989-0.801-5.979-1.222c-0.7-0.148-1.391-0.357-2.067-0.593c-2.551-0.888-3.952-2.73-4.345-5.366
			c-0.913-6.128,2.716-10.609,9.14-11.323c0.324-0.036,0.733,0.166,0.966-0.25C465.04,186.24,465.92,186.24,466.8,186.24z"/>
		<path stroke="white" stroke-width="1" fill-rule="evenodd" fill="#2C2B2A" d="M525.808,242.931c6.802,2.911,13.597,5.839,20.411,8.72
			c1.673,0.707,3.271,1.613,5.062,2.03c0,1.12,0,2.24,0,3.36c-3.054,0.602-6.011,1.567-9.009,2.376
			c-4.43,1.194-8.852,2.42-13.275,3.633c-0.12-1.487-0.828-2.764-1.449-4.072c0.033-0.565,0.065-1.13,0.099-1.695
			c0.278-1.433,0.034-2.761-0.822-3.955c-0.171-0.239-0.251-0.481-0.272-0.77C526.309,249.348,526.057,246.14,525.808,242.931z"/>
		<path stroke="white" stroke-width="1" fill-rule="evenodd" fill="#145393" d="M518.323,280.478c-0.037,0.434-0.104,0.868-0.105,1.302
			c-0.046,7.76-0.197,15.521-0.093,23.277c0.113,8.518-1.593,16.616-4.574,24.567c-3.655,9.75-9.34,18.229-15.688,26.338
			c-4.511,5.762-9.607,10.927-15.698,15.045c-3.89,2.631-3.915,2.651-7.572-0.267c-12.412-9.901-22.467-21.684-28.748-36.413
			c-4.405-10.332-6.781-21.097-6.684-32.383c0.077-8.958,0.014-17.918,0.014-26.877c3.657-0.149,7.29,0.086,10.938,0.394
			c3.528,0.298,6.926,0.983,10.191,2.271c2.177,0.86,4.319,1.871,5.782,3.849c-0.052,5.358-0.133,10.716-0.132,16.073
			c0,1.063-0.235,1.401-1.366,1.395c-7.878-0.048-15.756-0.016-23.635-0.005c-0.521,0-1.11-0.204-1.097,0.755
			c0.047,3.518-0.04,7.035,0.332,10.545c0.099,0.933,0.399,1.23,1.386,1.227c11.757-0.04,23.515-0.009,35.272-0.054
			c1.12-0.004,1.366,0.312,1.363,1.387c-0.047,19.355-0.054,38.711-0.069,58.066c0,0.466,0,0.931,0,1.4
			c0.542,0.066,0.845-0.241,1.174-0.429c4.417-2.507,8.223-5.786,11.825-9.331c0.621-0.612,0.854-1.238,0.851-2.107
			c-0.027-11.438-0.004-22.875-0.042-34.313c-0.003-0.995,0.236-1.253,1.24-1.246c6.719,0.049,13.438,0.005,20.155,0.051
			c0.897,0.006,1.222-0.307,1.468-1.105c1.121-3.637,1.88-7.341,2.344-11.117c0.135-1.102-0.165-1.304-1.219-1.299
			c-12.196,0.054-24.395,0.051-36.591,0.079c-0.707,0.001-1.164,0.016-1.16-0.963c0.043-10.877,0.037-21.754,0.043-32.631
			c0.261-0.092,0.516-0.211,0.785-0.271c1.898-0.427,3.817-0.724,5.762-0.836c2.253-0.13,4.463-0.759,6.742-0.564
			c-0.01,7.07,0.001,14.14-0.051,21.21c-0.007,0.959,0.271,1.179,1.195,1.172c7.869-0.058,15.738-0.079,23.607-0.064
			c0.914,0.001,1.196-0.204,1.195-1.166c-0.009-5.711,0.059-11.423,0.101-17.135C517.837,280.274,518.111,280.24,518.323,280.478z
			 M464.845,361.05c0.029-0.363,0.05-0.505,0.049-0.646c-0.046-11.507-0.105-23.014-0.123-34.521
			c-0.001-0.888-0.396-0.928-1.078-0.923c-6.393,0.041-12.786,0.088-19.178,0.057c-1.165-0.005-1.284,0.251-0.944,1.313
			c3.12,9.759,7.86,18.646,14.206,26.681C459.947,355.758,462.239,358.396,464.845,361.05z"/>
		<path stroke="white" stroke-width="1" fill-rule="evenodd" fill="#2C2B2A" d="M466.086,281.581c-1.463-1.978-3.604-2.989-5.782-3.849
			c-3.265-1.288-6.663-1.973-10.191-2.271c-3.649-0.308-7.282-0.543-10.938-0.394c-0.993,0.132-1.057-0.24-0.756-1.109
			c2.643-7.636,7.249-13.861,13.734-18.598c11.409-8.333,24.175-11.349,37.983-8.309c15.136,3.332,24.52,13.073,28.97,27.754
			c0.671,2.211,1.168,4.467,1.491,6.891c-0.829-0.444-1.551-0.831-2.272-1.219c-0.213-0.237-0.487-0.203-0.76-0.173
			c-0.299-0.498-0.853-0.553-1.323-0.722c-8.005-2.869-16.315-3.456-24.725-3.295c-2.279-0.195-4.489,0.434-6.742,0.564
			c-1.944,0.112-3.863,0.409-5.762,0.836c-0.269,0.06-0.523,0.179-0.784,0.271c-3.421,0.663-6.64,1.829-9.506,3.854
			c-0.515,0.364-0.978,1.081-1.479,1.095C466.87,282.917,466.473,282.055,466.086,281.581z"/>
		<path stroke="white" stroke-width="1" fill-rule="evenodd" fill="#145393" d="M527.546,258.978c0.622,1.308,1.33,2.585,1.45,4.072
			c0.273,1.629,0.222,3.269,0.135,4.906c-0.571,10.766-0.203,21.505,0.948,32.219c0.089,0.829-0.214,1.091-0.912,1.164
			c-1.715,0.179-3.424,0.183-5.142-0.033c-0.958-0.121-1.22-0.575-1.223-1.505c-0.042-11.119-0.12-22.237-0.195-33.355
			c-0.004-0.557-0.07-1.113-0.107-1.669c-0.165-1.962,0.072-3.854,0.981-5.629C524.823,258.787,526.184,258.854,527.546,258.978z"/>
		<path fill-rule="evenodd" fill="#2C2B2A" d="M505.539,204.96c1.839,0,3.677-0.008,5.516,0.007
			c0.355,0.003,0.857-0.186,0.896,0.469c0.03,0.495,0.057,0.983-0.592,1.108c-1.048,0.203-1.262,0.98-1.292,1.876
			c-0.067,1.998-0.143,3.997,0.063,5.99c0.05,0.476,0.069,0.822-0.494,1.019c-5.409,1.89-10.887,3.154-16.67,2.06
			c-7.806-1.477-13.558-7.569-12.608-17.509c0.753-7.889,6.601-12.152,12.951-13.197c5.167-0.851,10.263-0.379,15.25,1.278
			c1.027,0.341,1.363,0.748,1.098,1.888c-0.359,1.546-0.475,3.156-0.609,4.745c-0.061,0.707-0.28,0.959-1.01,0.963
			c-0.754,0.004-0.818-0.383-0.867-0.963c-0.277-3.326-0.877-4.065-4.084-5.107c-2.566-0.834-5.183-0.956-7.807-0.379
			c-4.513,0.991-7.525,4.405-8.262,9.448c-0.574,3.929-0.171,7.744,1.92,11.226c3.492,5.813,9.386,6.364,14.175,4.633
			c0.496-0.179,0.813-0.444,0.812-1.023c0-1.758,0.026-3.516,0.036-5.274c0.004-0.713-0.351-1.117-1.071-1.184
			c-0.954-0.088-1.906-0.226-2.862-0.254c-0.824-0.024-0.823-0.502-0.832-1.116c-0.012-0.744,0.438-0.706,0.948-0.703
			c1.799,0.012,3.598,0.004,5.396,0.004C505.539,204.965,505.539,204.962,505.539,204.96z"/>
		<path fill-rule="evenodd" fill="#2C2B2A" d="M421.901,200.092c0-2.999,0.042-5.998-0.015-8.996
			c-0.038-2.03-0.183-2.084-2.204-2.292c-0.53-0.054-1.359,0.282-1.382-0.822c-0.017-0.798,0.142-1.094,1.041-1.08
			c3.838,0.059,7.677,0.026,11.516,0.022c0.475,0,0.991-0.145,0.953,0.653c-0.029,0.612,0.09,1.24-0.847,1.204
			c-2.732-0.104-2.675,0.306-2.739,3.006c-0.129,5.434-0.259,10.873,0.16,16.305c0.291,3.767,2.21,5.726,5.989,5.993
			c0.954,0.067,1.92,0.079,2.874,0.013c3.926-0.272,6.198-2.425,6.478-6.319c0.41-5.709,0.277-11.429,0.042-17.144
			c-0.058-1.404-0.405-1.649-2.396-1.793c-0.849-0.061-1.491-0.16-1.336-1.273c0.072-0.513,0.24-0.661,0.746-0.657
			c2.799,0.018,5.598,0.008,8.396-0.009c0.479-0.003,0.803,0.105,0.751,0.65c-0.044,0.464,0.25,1.111-0.598,1.186
			c-0.358,0.031-0.719,0.071-1.067,0.158c-0.8,0.199-1.319,0.633-1.443,1.533c-0.164,1.195-0.187,2.391-0.201,3.589
			c-0.055,4.397,0.098,8.808-0.189,13.189c-0.45,6.875-3.572,9.926-10.445,10.589c-2.524,0.244-5.038,0.002-7.475-0.72
			c-4.166-1.234-6.142-3.718-6.307-8.11c-0.111-2.954-0.021-5.916-0.021-8.874C422.088,200.092,421.995,200.092,421.901,200.092z"/>
		<path fill-rule="evenodd" fill="#2C2B2A" d="M523.53,214.416c4.822,0.003,9.377,0.105,13.926-0.311
			c0.809-0.074,1.222-0.44,1.384-1.212c0.197-0.937,0.506-1.854,0.647-2.798c0.135-0.893,0.724-0.827,1.326-0.779
			c0.819,0.065,0.485,0.654,0.447,1.085c-0.169,1.912-0.385,3.82-0.503,5.734c-0.044,0.704-0.217,0.975-0.971,0.955
			c-7.878-0.207-15.756-0.216-23.635-0.016c-0.902,0.023-1.276-0.922-0.714-1.876c0.322-0.548,0.76-1.027,1.136-1.544
			c5.529-7.591,10.787-15.368,15.894-23.248c0.14-0.216,0.41-0.402,0.274-0.854c-3.911,0.097-7.853-0.152-11.788,0.249
			c-0.652,0.066-1.021,0.401-1.146,1.025c-0.148,0.744-0.367,1.486-0.404,2.236c-0.042,0.874-0.524,0.915-1.194,0.901
			c-0.913-0.02-0.603-0.643-0.599-1.111c0.013-1.639,0.094-3.28,0.036-4.917c-0.03-0.875,0.263-1.04,1.081-1.036
			c7.119,0.029,14.238,0.012,21.357,0.006c1.126-0.001,1.512,0.616,1.001,1.649c-0.14,0.282-0.366,0.521-0.552,0.781
			c-5.544,7.727-10.906,15.577-16.063,23.567C524.197,213.33,523.936,213.765,523.53,214.416z"/>
		<path stroke="white" stroke-width="1" fill-rule="evenodd" fill="#145393" d="M525.808,242.931c0.249,3.209,0.501,6.417,0.743,9.627
			c0.021,0.289,0.102,0.531,0.272,0.77c0.856,1.193,1.101,2.521,0.822,3.955c0.017-0.515-0.17-0.79-0.748-0.761
			c-1.137,0.056-2.275,0.067-3.413,0.098c-0.507-0.813-0.376-1.692-0.132-2.514c0.62-2.087,0.366-4.202,0.202-6.291
			c-0.096-1.214-0.043-2.453-0.436-3.661c-0.835-2.567-2.851-3.734-5.167-4.585c-0.522-0.192-1.047-0.361-1.474-0.736
			c2.194-0.161,4.375-0.011,6.544,0.311c1.494,0.222,2.287,1.174,2.546,2.624C525.638,242.156,525.728,242.542,525.808,242.931z"/>
		<polygon fill-rule="evenodd" fill="#145393" points="516.438,238.812 516.361,238.825 516.301,238.777 516.39,238.724 		"/>
		<path fill-rule="evenodd" fill="#FEFEFE" d="M523.484,256.619c1.138-0.03,2.276-0.042,3.413-0.098
			c0.578-0.029,0.765,0.246,0.748,0.761c-0.033,0.565-0.065,1.13-0.099,1.695c-1.363-0.124-2.724-0.191-4.065,0.168
			C523.469,258.304,523.01,257.461,523.484,256.619z"/>
		<path fill-rule="evenodd" fill="#FEFEFE" d="M466.086,281.581c0.387,0.474,0.784,1.336,1.158,1.326
			c0.501-0.014,0.964-0.73,1.479-1.095c2.866-2.025,6.085-3.191,9.506-3.854c-0.007,10.877-0.001,21.754-0.044,32.631
			c-0.004,0.979,0.453,0.964,1.16,0.963c12.197-0.028,24.395-0.025,36.591-0.079c1.054-0.005,1.354,0.197,1.219,1.299
			c-0.464,3.776-1.223,7.48-2.344,11.117c-0.246,0.799-0.57,1.111-1.468,1.105c-6.718-0.046-13.437-0.002-20.155-0.051
			c-1.004-0.007-1.243,0.251-1.24,1.246c0.038,11.438,0.015,22.875,0.042,34.313c0.003,0.869-0.229,1.495-0.851,2.107
			c-3.603,3.545-7.408,6.824-11.825,9.331c-0.329,0.188-0.632,0.495-1.174,0.429c0-0.47,0-0.935,0-1.4
			c0.016-19.355,0.022-38.711,0.069-58.066c0.003-1.075-0.243-1.391-1.363-1.387c-11.757,0.045-23.515,0.014-35.272,0.054
			c-0.987,0.004-1.287-0.294-1.386-1.227c-0.372-3.51-0.285-7.027-0.332-10.545c-0.013-0.959,0.575-0.755,1.097-0.755
			c7.878-0.011,15.757-0.043,23.635,0.005c1.131,0.007,1.366-0.331,1.366-1.395C465.953,292.297,466.034,286.939,466.086,281.581z"
			/>
		<path fill-rule="evenodd" fill="#FEFEFE" d="M491.517,276.288c8.409-0.161,16.72,0.426,24.725,3.295
			c0.471,0.169,1.024,0.224,1.323,0.722c-0.042,5.712-0.109,11.424-0.101,17.135c0.001,0.962-0.281,1.167-1.195,1.166
			c-7.869-0.015-15.738,0.007-23.607,0.064c-0.924,0.007-1.202-0.213-1.195-1.172C491.518,290.428,491.507,283.357,491.517,276.288z
			"/>
		<path fill-rule="evenodd" fill="#FEFEFE" d="M464.845,361.05c-2.605-2.654-4.897-5.292-7.066-8.039
			c-6.346-8.035-11.086-16.922-14.206-26.681c-0.34-1.062-0.221-1.317,0.944-1.313c6.392,0.031,12.785-0.016,19.178-0.057
			c0.682-0.005,1.076,0.035,1.078,0.923c0.018,11.507,0.076,23.014,0.123,34.521C464.895,360.545,464.874,360.687,464.845,361.05z"
			/>
	</g>
</g>
</svg>
